HIERARCHY
ROOT Hips
{
	OFFSET 0.000000 121.760803 0.000000
	CHANNELS 6 Xposition Yposition Zposition Xrotation Yrotation Zrotation 
	JOINT Spine
	{
		OFFSET 0.072000 7.257294 -0.789700
		CHANNELS 3 Xrotation Yrotation Zrotation
		JOINT Spine1
		{
			OFFSET 0.000000 12.508769 -0.658067
			CHANNELS 3 Xrotation Yrotation Zrotation
			JOINT Spine1_split
			{
				OFFSET 0.000000 12.508769 -0.658067
				CHANNELS 3 Xrotation Yrotation Zrotation
				JOINT Spine2
				{
					OFFSET 0.000000 12.508769 -0.658067
					CHANNELS 3 Xrotation Yrotation Zrotation
					JOINT Neck
					{
						OFFSET 0.000000 14.033295 7.520400
						CHANNELS 3 Xrotation Yrotation Zrotation
						JOINT Head
						{
							OFFSET 0.000000 8.198502 5.703100
							CHANNELS 3 Xrotation Yrotation Zrotation
							JOINT HeadTop_End
							{
								OFFSET 0.000000 17.760803 13.332701
								CHANNELS 3 Xrotation Yrotation Zrotation
								End Site
								{
									OFFSET 0.000000 0.000000 0.000000
								}
							}
						}
					}
					JOINT LeftShoulder
					{
						OFFSET 6.292450 5.785301 -0.669000
						CHANNELS 3 Xrotation Yrotation Zrotation
						JOINT LeftShoulder_split
						{
							OFFSET 6.292450 5.785301 -0.669000
							CHANNELS 3 Xrotation Yrotation Zrotation
							JOINT LeftArm
							{
								OFFSET 13.907140 -6.093903 1.965100
								CHANNELS 3 Xrotation Yrotation Zrotation
								JOINT LeftForeArm
								{
									OFFSET 34.140198 0.000000 0.000000
									CHANNELS 3 Xrotation Yrotation Zrotation
									JOINT LeftHand
									{
										OFFSET 40.960209 0.000000 0.000000
										CHANNELS 3 Xrotation Yrotation Zrotation
										JOINT LeftHandThumb1
										{
											OFFSET 10.006996 -7.170425 9.573125
											CHANNELS 3 Xrotation Yrotation Zrotation
											JOINT LeftHandThumb2
											{
												OFFSET 1.835007 -1.059448 1.059443
												CHANNELS 3 Xrotation Yrotation Zrotation
												JOINT LeftHandThumb3
												{
													OFFSET 2.112267 -1.219513 1.219518
													CHANNELS 3 Xrotation Yrotation Zrotation
													JOINT LeftHandThumb4
													{
														OFFSET 4.843811 -2.796570 2.796576
														CHANNELS 3 Xrotation Yrotation Zrotation
														End Site
														{
															OFFSET 0.000000 0.000000 0.000000
														}
													}
												}
											}
										}
										JOINT LeftHandIndex1
										{
											OFFSET 18.389847 -0.922348 4.596882
											CHANNELS 3 Xrotation Yrotation Zrotation
											JOINT LeftHandIndex2
											{
												OFFSET 4.711273 0.000000 0.000000
												CHANNELS 3 Xrotation Yrotation Zrotation
												JOINT LeftHandIndex3
												{
													OFFSET 2.886131 0.000000 0.000000
													CHANNELS 3 Xrotation Yrotation Zrotation
													JOINT LeftHandIndex4
													{
														OFFSET 6.145912 0.000000 0.000000
														CHANNELS 3 Xrotation Yrotation Zrotation
														End Site
														{
															OFFSET 0.000000 0.000000 0.000000
														}
													}
												}
											}
										}
										JOINT LeftHandMiddle1
										{
											OFFSET 18.013008 0.000000 0.000000
											CHANNELS 3 Xrotation Yrotation Zrotation
											JOINT LeftHandMiddle2
											{
												OFFSET 4.946693 0.000000 0.000000
												CHANNELS 3 Xrotation Yrotation Zrotation
												JOINT LeftHandMiddle3
												{
													OFFSET 3.342232 0.000000 0.000000
													CHANNELS 3 Xrotation Yrotation Zrotation
													JOINT LeftHandMiddle4
													{
														OFFSET 4.461754 0.000000 0.000000
														CHANNELS 3 Xrotation Yrotation Zrotation
														End Site
														{
															OFFSET 0.000000 0.000000 0.000000
														}
													}
												}
											}
										}
										JOINT LeftHandRing1
										{
											OFFSET 15.849892 -0.102921 -4.126150
											CHANNELS 3 Xrotation Yrotation Zrotation
											JOINT LeftHandRing2
											{
												OFFSET 3.527054 0.000000 0.000000
												CHANNELS 3 Xrotation Yrotation Zrotation
												JOINT LeftHandRing3
												{
													OFFSET 2.961098 0.000000 0.000000
													CHANNELS 3 Xrotation Yrotation Zrotation
													JOINT LeftHandRing4
													{
														OFFSET 4.927200 0.000000 0.000000
														CHANNELS 3 Xrotation Yrotation Zrotation
														End Site
														{
															OFFSET 0.000000 0.000000 0.000000
														}
													}
												}
											}
										}
										JOINT LeftHandPinky1
										{
											OFFSET 12.791824 -0.832031 -6.799156
											CHANNELS 3 Xrotation Yrotation Zrotation
											JOINT LeftHandPinky2
											{
												OFFSET 3.327133 0.000000 0.000000
												CHANNELS 3 Xrotation Yrotation Zrotation
												JOINT LeftHandPinky3
												{
													OFFSET 3.014900 0.000000 0.000000
													CHANNELS 3 Xrotation Yrotation Zrotation
													JOINT LeftHandPinky4
													{
														OFFSET 5.847786 0.000000 0.000000
														CHANNELS 3 Xrotation Yrotation Zrotation
														End Site
														{
															OFFSET 0.000000 0.000000 0.000000
														}
													}
												}
											}
										}
									}
								}
							}
						}
					}
					JOINT RightShoulder
					{
						OFFSET -6.292450 5.785301 -0.669000
						CHANNELS 3 Xrotation Yrotation Zrotation
						JOINT RightShoulder_split
						{
							OFFSET -6.292450 5.785301 -0.669000
							CHANNELS 3 Xrotation Yrotation Zrotation
							JOINT RightArm
							{
								OFFSET -13.907140 -6.093903 1.965100
								CHANNELS 3 Xrotation Yrotation Zrotation
								JOINT RightForeArm
								{
									OFFSET -34.140198 0.000000 0.000000
									CHANNELS 3 Xrotation Yrotation Zrotation
									JOINT RightHand
									{
										OFFSET -40.960209 0.000000 0.000000
										CHANNELS 3 Xrotation Yrotation Zrotation
										JOINT RightHandThumb1
										{
											OFFSET -10.007050 -7.170456 9.573117
											CHANNELS 3 Xrotation Yrotation Zrotation
											JOINT RightHandThumb2
											{
												OFFSET -1.835007 -1.059448 1.059443
												CHANNELS 3 Xrotation Yrotation Zrotation
												JOINT RightHandThumb3
												{
													OFFSET -2.112267 -1.219513 1.219518
													CHANNELS 3 Xrotation Yrotation Zrotation
													JOINT RightHandThumb4
													{
														OFFSET -4.843834 -2.796585 2.796590
														CHANNELS 3 Xrotation Yrotation Zrotation
														End Site
														{
															OFFSET 0.000000 0.000000 0.000000
														}
													}
												}
											}
										}
										JOINT RightHandIndex1
										{
											OFFSET -18.389870 -0.922424 4.596786
											CHANNELS 3 Xrotation Yrotation Zrotation
											JOINT RightHandIndex2
											{
												OFFSET -4.711273 0.000000 0.000000
												CHANNELS 3 Xrotation Yrotation Zrotation
												JOINT RightHandIndex3
												{
													OFFSET -2.886131 0.000000 0.000000
													CHANNELS 3 Xrotation Yrotation Zrotation
													JOINT RightHandIndex4
													{
														OFFSET -6.145920 0.000000 0.000000
														CHANNELS 3 Xrotation Yrotation Zrotation
														End Site
														{
															OFFSET 0.000000 0.000000 0.000000
														}
													}
												}
											}
										}
										JOINT RightHandMiddle1
										{
											OFFSET -18.013008 0.000000 0.000000
											CHANNELS 3 Xrotation Yrotation Zrotation
											JOINT RightHandMiddle2
											{
												OFFSET -4.946693 0.000000 0.000000
												CHANNELS 3 Xrotation Yrotation Zrotation
												JOINT RightHandMiddle3
												{
													OFFSET -3.342232 0.000000 0.000000
													CHANNELS 3 Xrotation Yrotation Zrotation
													JOINT RightHandMiddle4
													{
														OFFSET -4.461754 0.000000 0.000000
														CHANNELS 3 Xrotation Yrotation Zrotation
														End Site
														{
															OFFSET 0.000000 0.000000 0.000000
														}
													}
												}
											}
										}
										JOINT RightHandRing1
										{
											OFFSET -15.849876 -0.102936 -4.126237
											CHANNELS 3 Xrotation Yrotation Zrotation
											JOINT RightHandRing2
											{
												OFFSET -3.527054 0.000000 0.000000
												CHANNELS 3 Xrotation Yrotation Zrotation
												JOINT RightHandRing3
												{
													OFFSET -2.961098 0.000000 0.000000
													CHANNELS 3 Xrotation Yrotation Zrotation
													JOINT RightHandRing4
													{
														OFFSET -4.927200 0.000000 0.000000
														CHANNELS 3 Xrotation Yrotation Zrotation
														End Site
														{
															OFFSET 0.000000 0.000000 0.000000
														}
													}
												}
											}
										}
										JOINT RightHandPinky1
										{
											OFFSET -12.791786 -0.832077 -6.799222
											CHANNELS 3 Xrotation Yrotation Zrotation
											JOINT RightHandPinky2
											{
												OFFSET -3.327133 0.000000 0.000000
												CHANNELS 3 Xrotation Yrotation Zrotation
												JOINT RightHandPinky3
												{
													OFFSET -3.014900 0.000000 0.000000
													CHANNELS 3 Xrotation Yrotation Zrotation
													JOINT RightHandPinky4
													{
														OFFSET -5.847786 0.000000 0.000000
														CHANNELS 3 Xrotation Yrotation Zrotation
														End Site
														{
															OFFSET 0.000000 0.000000 0.000000
														}
													}
												}
											}
										}
									}
								}
							}
						}
					}
				}
			}
		}
	}
	JOINT LeftUpLeg
	{
		OFFSET 13.026900 -6.336304 -1.092800
		CHANNELS 3 Xrotation Yrotation Zrotation
		JOINT LeftLeg
		{
			OFFSET 0.524474 -46.096886 9.782700
			CHANNELS 3 Xrotation Yrotation Zrotation
			JOINT LeftFoot
			{
				OFFSET -0.524474 -53.427422 -12.948200
				CHANNELS 3 Xrotation Yrotation Zrotation
				JOINT LeftToeBase
				{
					OFFSET 0.192200 -14.009700 16.364100
					CHANNELS 3 Xrotation Yrotation Zrotation
					JOINT LeftToe_End
					{
						OFFSET -1.784700 -0.561700 9.474800
						CHANNELS 3 Xrotation Yrotation Zrotation
						End Site
						{
							OFFSET 0.000000 0.000000 0.000000
						}
					}
				}
			}
		}
	}
	JOINT RightUpLeg
	{
		OFFSET -12.883000 -6.336304 -1.092800
		CHANNELS 3 Xrotation Yrotation Zrotation
		JOINT RightLeg
		{
			OFFSET -0.524587 -46.096825 9.782800
			CHANNELS 3 Xrotation Yrotation Zrotation
			JOINT RightFoot
			{
				OFFSET 0.524587 -53.427383 -12.948300
				CHANNELS 3 Xrotation Yrotation Zrotation
				JOINT RightToeBase
				{
					OFFSET -0.192200 -14.009700 16.364100
					CHANNELS 3 Xrotation Yrotation Zrotation
					JOINT RightToe_End
					{
						OFFSET 1.784700 -0.561700 9.474800
						CHANNELS 3 Xrotation Yrotation Zrotation
						End Site
						{
							OFFSET 0.000000 0.000000 0.000000
						}
					}
				}
			}
		}
	}
}
MOTION
Frames: 4
Frame Time: 0.016667
-0.086529 94.466362 -0.178570 -5.399410 -46.427425 -0.217658 9.459022 7.380301 -1.672750 2.187716 0.989895 -0.915630 0.000000 0.000000 0.000000 2.202828 0.982778 -0.894153 0.084652 13.220558 4.538681 8.920927 20.138147 -4.130238 0.000001 0.000000 -0.000001 1.117177 3.546347 -8.633310 0.000000 0.000000 0.000000 -53.487020 4.935499 -51.503004 -0.000055 -106.358067 -0.000069 1.988609 -7.706146 -15.869248 -6.141202 -11.690804 -6.761688 9.914135 42.595519 3.409844 -0.422801 8.108103 27.509111 0.000004 -0.000005 0.000003 0.255317 3.378217 -45.814348 5.654097 5.847747 -88.067448 2.162145 4.544816 -50.866382 -0.000001 -0.000001 -0.000000 -0.461468 3.841592 -39.722693 6.450747 5.820354 -95.892851 2.182892 4.561566 -51.127733 -0.000001 -0.000000 0.000000 0.469727 4.966828 -39.799447 8.181043 5.368609 -113.502998 3.200493 5.218126 -63.022989 -0.000000 -0.000000 -0.000000 -3.762429 9.063705 -45.253821 5.342544 5.829016 -85.005311 8.716845 5.103336 -119.369167 0.000000 0.000000 0.000002 3.036128 13.027204 -5.371410 0.000000 0.000000 0.000000 -48.713698 27.172832 83.457057 -0.000096 105.988287 0.000103 -8.345368 17.548100 8.775689 -7.341091 13.749658 7.412338 9.855734 -44.489089 -3.903287 -0.115775 -14.513090 -28.973884 -0.000000 0.000004 -0.000000 -0.124373 -2.384787 45.108861 4.500592 -4.654538 88.071171 1.723229 -3.618374 50.920116 -0.000000 -0.000001 0.000003 -0.761624 -2.932911 39.031055 5.133883 -4.632757 95.881649 1.739745 -3.631697 51.181340 0.000001 -0.000000 0.000004 0.154761 -4.068821 39.122675 6.509737 -4.273598 113.462870 2.549583 -4.153922 63.067337 -0.000001 0.000000 -0.000000 -4.198869 -8.025514 44.637769 4.252918 -4.639621 85.014805 6.935979 -4.062626 119.322312 -0.000000 0.000000 0.000000 -35.094820 6.482922 17.943540 57.627091 -6.303595 4.336280 -19.842727 -8.003835 -15.604795 -1.594036 -0.000029 0.000004 0.000000 0.000002 -0.000000 -25.791098 -8.564281 -30.187913 56.910881 -8.362225 -7.381951 -21.920194 -6.263898 23.240936 -0.013002 -0.000005 -0.000002 -0.000000 -0.000000 -0.000000 
0.052602 94.654671 -0.324088 -5.728655 -46.604580 -0.205900 9.274432 7.478181 -1.685636 2.640259 1.191266 -1.060357 0.000000 0.000000 0.000000 2.654104 1.184981 -1.039338 0.357703 12.542813 4.092545 8.127883 19.984276 -4.225179 0.000000 -0.000000 0.000001 0.981718 3.207204 -8.086438 0.000000 0.000000 0.000000 -52.083491 4.488237 -52.459671 0.000065 -105.430780 0.000071 1.015799 -5.582485 -15.643293 -6.141203 -11.690805 -6.761691 9.914131 42.595519 3.409856 -0.422802 8.108106 27.509111 -0.000001 -0.000002 0.000001 0.255317 3.378217 -45.814341 5.654099 5.847749 -88.067448 2.162144 4.544815 -50.866386 0.000001 -0.000001 -0.000003 -0.461468 3.841591 -39.722693 6.450748 5.820356 -95.892851 2.182889 4.561566 -51.127726 -0.000000 -0.000001 -0.000000 0.469726 4.966826 -39.799444 8.181041 5.368610 -113.502998 3.200494 5.218127 -63.022982 -0.000002 0.000000 -0.000000 -3.762429 9.063705 -45.253825 5.342538 5.829014 -85.005311 8.716848 5.103333 -119.369167 -0.000001 0.000000 0.000000 3.469379 13.680577 -5.027489 0.000000 0.000000 0.000000 -48.559237 27.223985 81.465743 0.000113 106.431020 -0.000107 -8.957053 17.278915 9.150943 -7.341091 13.749659 7.412331 9.855734 -44.489089 -3.903300 -0.115776 -14.513092 -28.973884 0.000002 -0.000002 0.000002 -0.124371 -2.384785 45.108861 4.500591 -4.654537 88.071171 1.723227 -3.618376 50.920116 -0.000001 -0.000001 -0.000005 -0.761622 -2.932909 39.031058 5.133885 -4.632757 95.881649 1.739747 -3.631697 51.181340 -0.000000 0.000003 0.000001 0.154762 -4.068816 39.122675 6.509735 -4.273600 113.462870 2.549582 -4.153920 63.067337 -0.000000 0.000001 0.000000 -4.198869 -8.025514 44.637769 4.252917 -4.639621 85.014805 6.935976 -4.062627 119.322312 -0.000000 -0.000000 -0.000000 -34.641401 6.657902 17.627631 57.206526 -6.052710 4.362382 -19.612244 -7.987601 -15.705368 -1.594036 -0.000027 0.000004 -0.000000 -0.000000 -0.000000 -25.738134 -8.384880 -30.367376 56.771911 -8.280505 -7.371199 -21.736012 -6.170959 23.099140 -0.013002 -0.000003 -0.000001 0.000000 0.000000 0.000000 
0.209581 94.846092 -0.455659 -5.978096 -46.819058 -0.060239 9.090959 7.728282 -1.848976 3.124196 1.480127 -1.284675 0.000000 0.000000 0.000000 3.136771 1.474865 -1.263946 0.728169 11.771767 3.506735 6.906012 19.480698 -3.816385 -0.000001 0.000000 0.000000 0.863358 2.875885 -7.567501 0.000000 0.000000 0.000000 -50.820419 3.482937 -53.809777 0.000276 -104.407713 0.000277 -0.646196 -3.189674 -15.370738 -6.141204 -11.690805 -6.761681 9.914131 42.595519 3.409845 -0.422803 8.108105 27.509111 0.000001 0.000001 -0.000001 0.255318 3.378216 -45.814344 5.654093 5.847747 -88.067448 2.162144 4.544815 -50.866382 0.000001 -0.000001 0.000001 -0.461470 3.841593 -39.722690 6.450749 5.820354 -95.892851 2.182891 4.561567 -51.127733 -0.000003 0.000001 0.000004 0.469728 4.966825 -39.799444 8.181042 5.368608 -113.502998 3.200492 5.218129 -63.022982 0.000001 -0.000000 -0.000001 -3.762428 9.063699 -45.253825 5.342545 5.829014 -85.005311 8.716846 5.103334 -119.369167 -0.000000 -0.000000 -0.000000 3.937035 14.543556 -4.656808 0.000000 0.000000 0.000000 -48.082100 26.964805 78.972498 0.000222 107.157704 -0.000192 -9.547721 17.015693 9.282272 -7.341092 13.749659 7.412336 9.855738 -44.489089 -3.903286 -0.115776 -14.513092 -28.973884 -0.000001 -0.000000 0.000002 -0.124372 -2.384785 45.108864 4.500589 -4.654537 88.071178 1.723228 -3.618375 50.920116 0.000000 -0.000001 0.000003 -0.761624 -2.932912 39.031061 5.133881 -4.632755 95.881649 1.739745 -3.631696 51.181340 0.000000 0.000000 0.000002 0.154760 -4.068821 39.122671 6.509736 -4.273599 113.462877 2.549583 -4.153919 63.067337 -0.000001 0.000001 0.000001 -4.198872 -8.025519 44.637769 4.252910 -4.639621 85.014805 6.935978 -4.062624 119.322312 -0.000004 -0.000000 0.000000 -34.168185 6.765948 17.211047 56.746817 -5.670339 4.322567 -19.383174 -7.968438 -15.841611 -1.594036 -0.000031 0.000003 0.000000 -0.000000 -0.000000 -25.741810 -8.086009 -30.601440 56.638073 -8.225306 -7.354951 -21.526159 -6.086099 22.990219 -0.013002 -0.000004 -0.000002 -0.000000 0.000001 -0.000001 
0.375395 95.060440 -0.564273 -6.275745 -46.894576 0.368631 8.805916 8.419496 -2.209095 3.590461 1.988625 -1.614735 0.000000 0.000000 0.000000 3.602246 1.984438 -1.593468 1.274048 10.754597 2.693524 6.275627 17.988044 -3.563897 0.000000 0.000000 0.000000 0.788833 2.666426 -7.211885 0.000000 0.000000 0.000000 -49.654625 0.704926 -56.253315 0.000158 -102.244667 0.000149 -2.418239 -0.428775 -15.025535 -6.141203 -11.690801 -6.761687 9.914137 42.595519 3.409845 -0.422810 8.108105 27.509108 0.000003 -0.000001 0.000001 0.255315 3.378219 -45.814341 5.654094 5.847749 -88.067448 2.162143 4.544813 -50.866382 -0.000000 -0.000002 -0.000003 -0.461470 3.841593 -39.722686 6.450744 5.820356 -95.892857 2.182889 4.561565 -51.127729 -0.000002 0.000004 0.000002 0.469726 4.966827 -39.799447 8.181037 5.368607 -113.502998 3.200493 5.218126 -63.022982 -0.000002 -0.000000 0.000000 -3.762430 9.063704 -45.253825 5.342536 5.829013 -85.005311 8.716846 5.103333 -119.369167 -0.000001 -0.000001 0.000000 4.427750 15.576514 -4.226198 0.000000 0.000000 0.000000 -46.369348 25.864366 75.178308 0.000008 108.408387 -0.000028 -10.196614 16.852071 9.256441 -7.341092 13.749659 7.412334 9.855744 -44.489089 -3.903286 -0.115778 -14.513093 -28.973884 0.000000 -0.000000 -0.000000 -0.124374 -2.384789 45.108868 4.500588 -4.654539 88.071171 1.723227 -3.618376 50.920116 0.000001 -0.000001 -0.000001 -0.761625 -2.932914 39.031061 5.133883 -4.632756 95.881649 1.739746 -3.631694 51.181340 -0.000001 0.000001 -0.000002 0.154761 -4.068818 39.122675 6.509732 -4.273599 113.462877 2.549583 -4.153917 63.067337 -0.000001 0.000001 0.000004 -4.198870 -8.025513 44.637769 4.252909 -4.639619 85.014805 6.935981 -4.062626 119.322312 0.000001 -0.000000 -0.000000 -33.536734 6.907278 16.417970 56.143469 -5.229636 4.204320 -19.083128 -7.985313 -15.939800 -1.594036 -0.000027 0.000004 0.000000 -0.000002 -0.000000 -25.596564 -7.555138 -31.086663 56.525273 -8.168782 -7.309135 -21.301096 -6.260389 22.951022 -0.013002 -0.000004 -0.000002 0.000000 0.000001 0.000000 
